<svg width="39" height="40" viewBox="0 0 39 40" fill="none" xmlns="http://www.w3.org/2000/svg">
<circle cx="19.5" cy="20" r="19.5" fill="#F2FCF2"/>
<path fill-rule="evenodd" clip-rule="evenodd" d="M23.9737 25.7348C23.5679 26.1094 22.9352 26.084 22.5606 25.6782L12.9693 15.2856C12.5947 14.8797 12.6201 14.2471 13.0259 13.8725C13.4318 13.4979 14.0644 13.5233 14.439 13.9292L24.0304 24.3217C24.4049 24.7276 24.3796 25.3602 23.9737 25.7348Z" fill="#25AF36"/>
<path fill-rule="evenodd" clip-rule="evenodd" d="M23.7362 14.0088C24.288 14.0309 24.7174 14.4962 24.6953 15.048L24.2947 25.04C24.2726 25.5918 23.8073 26.0213 23.2554 25.9991L13.2635 25.5985C12.7116 25.5764 12.2822 25.1111 12.3043 24.5593C12.3265 24.0074 12.7917 23.578 13.3436 23.6001L22.3364 23.9607L22.6969 14.9679C22.719 14.4161 23.1843 13.9866 23.7362 14.0088Z" fill="#25AF36"/>
</svg>
