<svg width="7" height="6" viewBox="0 0 7 6" fill="none" xmlns="http://www.w3.org/2000/svg">
<path d="M2.81555 5.47098C2.74074 5.47142 2.66659 5.45708 2.59733 5.42879C2.52808 5.4005 2.46509 5.35882 2.41197 5.30614L0.706713 3.60085C0.653435 3.54801 0.611146 3.48514 0.582288 3.41587C0.55343 3.3466 0.538574 3.2723 0.538574 3.19726C0.538574 3.12222 0.55343 3.04793 0.582288 2.97866C0.611146 2.90939 0.653435 2.84652 0.706713 2.79368C0.813213 2.68781 0.957279 2.62838 1.10745 2.62838C1.25762 2.62838 1.40168 2.68781 1.50819 2.79368L2.81555 4.10107L5.8225 1.08839C5.929 0.98252 6.07307 0.923096 6.22323 0.923096C6.3734 0.923096 6.51747 0.98252 6.62397 1.08839C6.67725 1.14123 6.71954 1.2041 6.74839 1.27337C6.77725 1.34264 6.79211 1.41694 6.79211 1.49198C6.79211 1.56702 6.77725 1.64131 6.74839 1.71058C6.71954 1.77985 6.67725 1.84272 6.62397 1.89556L3.21345 5.30614C3.10757 5.41115 2.96467 5.47035 2.81555 5.47098Z" fill="#F0F7FC"/>
</svg>
